HIERARCHY
ROOT Hips
{
     OFFSET 21.34530 92.35080 -19.52420
     CHANNELS 6 Xposition Yposition Zposition Zrotation Xrotation Yrotation
     JOINT Spine
     {
          OFFSET 0.00000 11.89050 0.00000
          CHANNELS 3 Zrotation Xrotation Yrotation
          JOINT Spine1
          {
               OFFSET 0.00000 25.65740 0.12766
               CHANNELS 3 Zrotation Xrotation Yrotation
               JOINT HEad
               {
                    OFFSET -0.00000 8.73416 0.01134
                    CHANNELS 3 Zrotation Xrotation Yrotation
                    End Site
                    {
                         OFFSET -0.29000 12.77420 2.51395
                    }
               }
               JOINT LeftShoulder1
               {
                    OFFSET 8.99000 -0.36225 -0.22000
                    CHANNELS 3 Zrotation Xrotation Yrotation
                    JOINT LeftArm
                    {
                         OFFSET 10.28270 -0.00338 0.32212
                         CHANNELS 3 Zrotation Xrotation Yrotation
                         JOINT LeftForeArm
                         {
                              OFFSET 32.76690 0.09914 -1.42434
                              CHANNELS 3 Zrotation Xrotation Yrotation
                              JOINT LeftHand
                              {
                                   OFFSET 27.56430 0.08536 1.02216
                                   CHANNELS 3 Zrotation Xrotation Yrotation
                                   End Site
                                   {
                                        OFFSET 16.74430 -0.60000 1.50291
                                   }
                              }
                         }
                    }
               }
               JOINT RightShoulder
               {
                    OFFSET -8.99000 -0.36225 -0.22000
                    CHANNELS 3 Zrotation Xrotation Yrotation
                    JOINT RightArm
                    {
                         OFFSET -10.28270 -0.00338 0.32212
                         CHANNELS 3 Zrotation Xrotation Yrotation
                         JOINT RightForeArm
                         {
                              OFFSET -32.89710 0.09914 -1.42434
                              CHANNELS 3 Zrotation Xrotation Yrotation
                              JOINT RightHand
                              {
                                   OFFSET -27.49210 0.08536 1.02216
                                   CHANNELS 3 Zrotation Xrotation Yrotation
                                   End Site
                                   {
                                        OFFSET -16.63120 -0.60000 1.50291
                                   }
                              }
                         }
                    }
               }
          }
     }
     JOINT LeftUpLeg
     {
          OFFSET 8.94580 -8.66707 0.10165
          CHANNELS 3 Zrotation Xrotation Yrotation
          JOINT LeftLeg
          {
               OFFSET 0.00000 -44.42270 1.37270
               CHANNELS 3 Zrotation Xrotation Yrotation
               JOINT LeftFoot
               {
                    OFFSET -0.25355 -42.09240 -1.46059
                    CHANNELS 3 Zrotation Xrotation Yrotation
                    JOINT LeftToes
                    {
                         OFFSET -0.04000 -4.41509 8.49910
                         CHANNELS 3 Zrotation Xrotation Yrotation
                         End Site
                         {
                              OFFSET 0.08000 -0.04745 9.77979
                         }
                    }
               }
          }
     }
     JOINT RightUpLeg
     {
          OFFSET -8.94580 -8.66707 0.10165
          CHANNELS 3 Zrotation Xrotation Yrotation
          JOINT RightLeg
          {
               OFFSET 0.00000 -44.42270 1.37270
               CHANNELS 3 Zrotation Xrotation Yrotation
               JOINT RightFoot
               {
                    OFFSET 0.25355 -42.09240 -1.46059
                    CHANNELS 3 Zrotation Xrotation Yrotation
                    JOINT RightToes
                    {
                         OFFSET 0.04000 -4.41509 8.49910
                         CHANNELS 3 Zrotation Xrotation Yrotation
                         End Site
                         {
                              OFFSET -0.08000 -0.13745 9.77979
                         }
                    }
               }
          }
     }
}
MOTION
Frames: 15
Frame Time: 0.01667
17.54730 94.47750 -34.34260 -10.65830 -7.97550 -30.39230 2.43881 10.80180 -0.21698 -1.05414 22.06530 0.31213 -3.75756 9.90376 9.94661 -0.00000 0.00000 -0.00000 -131.61400 -62.37250 -113.16800 -49.17000 62.38220 -65.70900 19.85820 6.82235 -13.96470 11.98230 0.66192 1.70962 86.30950 -3.86187 76.43080 10.31050 30.58590 92.74320 14.73380 11.76260 9.57287 23.06420 -9.53681 -16.58600 -19.17080 15.76890 57.40900 -13.10450 4.03260 1.30016 -0.00000 0.00000 -0.00000 -19.86670 14.14480 13.66210 37.74410 2.53704 -30.48640 -26.95220 -4.39478 0.63762 2.27744 -21.98470 7.99572 
17.61390 94.52510 -34.22090 -10.48940 -7.92900 -30.41560 1.98696 10.79050 -0.11081 -1.26118 21.98580 0.41026 -3.48804 9.75936 10.02480 -0.00000 0.00000 -0.00000 -134.28400 -61.90290 -115.29900 -51.06600 63.46250 -63.92950 20.05390 6.77962 -14.02540 12.19030 0.69198 1.86545 86.18930 -4.14253 76.42700 10.27290 30.52840 92.74430 14.76000 11.78510 9.71573 22.98100 -9.48981 -16.36720 -19.26670 15.54990 57.44910 -13.07520 4.14662 1.30941 0.00000 -0.00000 -0.00000 -20.21500 14.34440 14.01170 37.84350 1.74987 -30.30180 -27.20550 -4.05249 0.73067 2.30557 -22.32840 7.53896 
17.67780 94.56580 -34.09510 -10.28520 -7.90349 -30.45600 1.46166 10.78390 -0.00472 -1.52501 21.91080 0.50089 -3.36208 9.46769 10.20970 -0.00000 0.00000 -0.00000 -137.04401 -61.42890 -117.56900 -53.40630 64.50010 -61.71250 20.28490 6.72824 -14.10080 12.39890 0.73981 2.13355 86.07510 -4.50731 76.44580 10.29360 30.46870 92.73360 14.79860 11.80180 9.80403 22.86670 -9.42058 -16.12080 -19.37960 15.29630 57.53990 -12.88040 4.33900 1.30951 -0.00000 0.00000 0.00000 -20.61720 14.50870 14.41580 37.95560 1.00503 -30.16420 -27.42110 -3.77036 0.80880 2.32533 -22.60970 7.14636 
17.75210 94.59570 -33.93950 -10.09780 -7.87724 -30.50700 1.01910 10.78000 0.07958 -1.80434 21.85650 0.58346 -3.46187 9.05929 10.43220 -0.00000 0.00000 -0.00000 -138.55200 -60.98700 -118.85000 -54.91480 65.04670 -60.25650 20.48520 6.68402 -14.16260 12.47960 0.79000 2.44156 86.06760 -4.91550 76.49230 10.36090 30.43910 92.71680 14.82860 11.81190 9.85114 22.75040 -9.36382 -15.89790 -19.51940 15.09140 57.74140 -12.53000 4.55430 1.29461 -0.00000 0.00000 0.00000 -20.97870 14.62460 14.78570 38.00970 0.43769 -30.03940 -27.47350 -3.61855 0.84890 2.31354 -22.65850 6.82941 
17.84120 94.61240 -33.74750 -9.94078 -7.84285 -30.55800 0.69676 10.78590 0.13997 -2.07372 21.84040 0.65750 -3.74615 8.60674 10.63970 -0.00000 0.00000 -0.00000 -138.37500 -60.62400 -118.76600 -54.84940 64.99000 -60.27500 20.60680 6.65783 -14.19580 12.39170 0.83227 2.73961 86.19950 -5.32541 76.56300 10.44670 30.44590 92.70330 14.83240 11.81710 9.88578 22.64130 -9.34635 -15.76090 -19.70940 14.96890 58.08350 -12.09110 4.73534 1.26536 0.00000 0.00000 0.00000 -21.26850 14.68610 15.08180 37.98840 0.09643 -29.92980 -27.33390 -3.62166 0.84286 2.26765 -22.44520 6.58082 
17.94240 94.61990 -33.52840 -9.79462 -7.81140 -30.59640 0.43672 10.80410 0.18966 -2.32958 21.85750 0.72793 -4.06105 8.22218 10.80480 -0.00000 0.00000 -0.00000 -137.17900 -60.32000 -117.83000 -53.66360 64.57680 -61.35200 20.64930 6.65086 -14.19510 12.21360 0.86278 2.98866 86.40030 -5.71232 76.62610 10.51580 30.47140 92.70770 14.82320 11.81870 9.90642 22.52520 -9.36409 -15.74850 -19.96390 14.89970 58.52580 -11.67110 4.83761 1.22933 0.00000 -0.00000 0.00000 -21.51580 14.72660 15.27540 37.90500 -0.08046 -29.82240 -27.11630 -3.71686 0.81104 2.21084 -22.12410 6.39270 
18.05180 94.63430 -33.29400 -9.64818 -7.79506 -30.62070 0.18351 10.82610 0.24040 -2.57587 21.88050 0.81187 -4.30387 7.99763 10.91090 -0.00000 0.00000 -0.00000 -135.79900 -60.05050 -116.67400 -52.16230 64.12650 -62.72900 20.65110 6.65757 -14.15600 12.05760 0.87844 3.13747 86.55330 -6.06000 76.62370 10.53630 30.49550 92.73880 14.81830 11.81730 9.90075 22.40350 -9.36194 -15.80180 -20.26350 14.80130 58.95030 -11.32780 4.86170 1.19386 0.00000 0.00000 -0.00000 -21.76050 14.82940 15.35290 37.77740 -0.26181 -29.66420 -27.01050 -3.76926 0.79420 2.17266 -21.90670 6.25744 
18.16510 94.67240 -33.04430 -9.48770 -7.79654 -30.65920 -0.12303 10.84000 0.31392 -2.81160 21.87620 0.92553 -4.48214 7.94517 10.94940 -0.00000 0.00000 -0.00000 -134.59300 -59.83740 -115.56700 -50.76040 63.80060 -64.01220 20.64450 6.67275 -14.07730 11.99010 0.87980 3.16644 86.57030 -6.37485 76.50570 10.50010 30.51020 92.78430 14.81260 11.81360 9.87826 22.27570 -9.27081 -15.78570 -20.56050 14.59790 59.26240 -11.02980 4.86624 1.16149 -0.00000 0.00000 0.00000 -22.04730 15.03000 15.36840 37.62750 -0.57988 -29.43340 -27.12550 -3.70895 0.81334 2.16005 -21.84940 6.17145 
18.28160 94.74330 -32.77980 -9.30093 -7.80291 -30.73780 -0.52430 10.83750 0.42024 -3.03623 21.82220 1.07444 -4.59931 8.00575 10.91760 -0.00000 0.00000 -0.00000 -133.54700 -59.71800 -114.51400 -49.53920 63.59820 -65.12420 20.63830 6.69294 -13.97030 12.03340 0.87285 3.10727 86.42160 -6.69208 76.26670 10.43360 30.51340 92.81740 14.81440 11.81050 9.85403 22.13640 -9.06240 -15.58400 -20.79780 14.25490 59.44020 -10.69510 4.95492 1.13239 -0.00000 0.00000 0.00000 -22.38970 15.27760 15.43020 37.47020 -1.05368 -29.18640 -27.39860 -3.58504 0.85448 2.14879 -21.78590 6.12592 
18.40900 94.84900 -32.49760 -9.07341 -7.80981 -30.86280 -1.02434 10.81940 0.55403 -3.26280 21.72280 1.24911 -4.62078 8.09419 10.82710 -0.00000 0.00000 -0.00000 -132.54601 -59.70620 -113.47700 -48.48140 63.45310 -66.07850 20.63250 6.71343 -13.86110 12.18880 0.86516 3.01140 86.12170 -7.04536 75.95180 10.36820 30.49790 92.82040 14.85420 11.81350 9.83964 21.95590 -8.73909 -15.18090 -20.94070 13.76850 59.52270 -10.26610 5.19519 1.10486 -0.00000 0.00000 -0.00000 -22.79630 15.51180 15.62300 37.30460 -1.64247 -28.98490 -27.65480 -3.46431 0.89478 2.10945 -21.51530 6.09487 
18.54360 94.96370 -32.21390 -8.71630 -7.86977 -31.03410 -1.77991 10.81110 0.73140 -3.53193 21.61220 1.42216 -4.55273 8.13879 10.72050 -0.00000 0.00000 -0.00000 -131.47501 -59.79690 -112.43600 -47.50530 63.28380 -66.95050 20.62900 6.72953 -13.77430 12.41710 0.86301 2.93345 85.72600 -7.44292 75.62690 10.32730 30.46160 92.78920 14.93630 11.82510 9.85026 21.61400 -8.33761 -14.66480 -21.00270 13.17530 59.58470 -9.77269 5.55524 1.07761 -0.00000 -0.00000 -0.00000 -23.33190 15.55530 15.91100 37.13270 -2.00225 -28.93060 -27.69300 -3.46909 0.89507 2.04147 -21.04360 6.04205 
18.68420 95.07460 -31.93190 -8.17669 -8.03059 -31.25150 -2.86667 10.83310 0.94940 -3.88378 21.52610 1.57014 -4.43450 8.09797 10.65860 -0.00000 0.00000 -0.00000 -130.21899 -59.97030 -111.35900 -46.42220 63.01580 -67.91130 20.63000 6.74085 -13.71010 12.63810 0.86728 2.90082 85.32800 -7.85909 75.35360 10.33490 30.42380 92.73080 15.03510 11.84100 9.87668 21.03730 -7.85385 -14.15230 -21.02320 12.45900 59.66650 -9.26558 5.93814 1.04737 0.00000 -0.00000 -0.00000 -24.07850 15.38600 16.26590 36.98030 -2.06182 -29.02630 -27.50350 -3.55468 0.86611 1.97387 -20.58550 5.93650 
18.86720 95.18490 -31.59730 -7.67066 -8.17036 -31.51160 -3.74830 10.84940 1.11024 -4.30188 21.47250 1.69891 -4.28276 7.94751 10.69000 -0.00000 0.00000 -0.00000 -128.66800 -60.17730 -110.18000 -45.01690 62.59150 -69.14750 20.63260 6.75307 -13.63930 12.78000 0.87117 2.88760 85.01730 -8.24706 75.17650 10.39360 30.41430 92.67440 15.13030 11.85250 9.87398 20.45330 -7.38408 -13.67910 -21.06400 11.82540 59.74700 -8.85347 6.18175 1.01556 0.00000 0.00000 0.00000 -24.88660 15.30210 16.71130 36.87520 -2.37135 -29.05630 -27.31470 -3.42033 0.89248 1.93053 -20.32140 5.74778 
19.05050 95.35790 -31.25910 -7.00708 -8.39580 -31.82990 -4.94791 10.90510 1.30471 -4.85449 21.47240 1.83347 -4.11772 7.67334 10.84110 -0.00000 0.00000 -0.00000 -126.78200 -60.35450 -108.85600 -43.24320 61.97150 -70.69020 20.62300 6.77308 -13.53600 12.79770 0.86755 2.85977 84.84660 -8.58149 75.11230 10.47500 30.44760 92.66200 15.22090 11.85480 9.80987 19.73380 -6.60233 -13.20860 -21.08590 10.59970 59.78910 -8.21869 6.49166 0.95893 0.00000 -0.00000 -0.00000 -25.95670 15.28100 17.30490 36.79900 -2.98918 -29.01090 -27.25400 -3.03528 0.98611 1.90792 -20.23890 5.43920 
19.29580 95.45370 -30.83320 -6.54770 -8.51570 -32.24460 -5.60914 10.93130 1.43753 -5.24846 21.47440 1.97957 -3.99176 7.28564 11.11520 -0.00000 0.00000 -0.00000 -124.61500 -60.45520 -107.39900 -41.24500 61.13600 -72.40420 20.58370 6.80089 -13.41540 12.68020 0.85741 2.82604 84.81880 -8.88347 75.15150 10.54080 30.51600 92.71550 15.30940 11.85150 9.70835 19.15200 -6.10729 -12.57950 -21.16950 10.10080 59.80690 -7.88213 6.52831 0.91959 -0.00000 -0.00000 0.00000 -26.77050 14.99080 17.74670 36.70320 -2.99175 -28.97550 -27.10740 -2.77304 1.04480 1.89477 -20.26320 5.00180 
